<svg width="40" height="40" xmlns="http://www.w3.org/2000/svg" xmlns:svg="http://www.w3.org/2000/svg">
    <g class="layer">
        <g id="img-instagram">
            <circle cx="20" cy="20" fill="white" id="Ellipse 2" r="20"/>
            <circle cx="20" cy="20" fill="white" id="Ellipse 3" r="10"/>
            <path d="m15,8c-3.86,0 -7,3.14 -7,7l0,10c0,3.86 3.14,7 7,7l10,0c3.86,0 7,-3.14 7,-7l0,-10c0,-3.86 -3.14,-7 -7,-7l-10,0zm12,4c0.55,0 1,0.45 1,1c0,0.55 -0.45,1 -1,1c-0.55,0 -1,-0.45 -1,-1c0,-0.55 0.45,-1 1,-1zm-7,2c3.31,0 6,2.69 6,6c0,3.31 -2.69,6 -6,6c-3.31,0 -6,-2.69 -6,-6c0,-3.31 2.69,-6 6,-6zm0,2c-2.21,0 -4,1.79 -4,4c0,2.21 1.79,4 4,4c2.21,0 4,-1.79 4,-4c0,-2.21 -1.79,-4 -4,-4z" id="svg_1"/>
        </g>
    </g>
</svg>